<svg fill="none" viewBox="0 0 54 53" xmlns="http://www.w3.org/2000/svg">
<path d="M27 4.41663V22.0833M27 22.0833L33.75 15.4583M27 22.0833L20.25 15.4583" stroke-width="3" stroke-linecap="round" stroke-linejoin="round"/>
<path d="M4.5 28.7083H11.61C13.6462 28.7083 14.6655 28.7083 15.561 29.1124C16.4565 29.5165 17.118 30.2762 18.4432 31.7933L19.8068 33.3524C21.132 34.8695 21.7935 35.6292 22.689 36.0333C23.5845 36.4374 24.6015 36.4374 26.64 36.4374H27.36C29.3962 36.4374 30.4155 36.4374 31.311 36.0333C32.2065 35.6292 32.868 34.8695 34.1932 33.3524L35.5568 31.7933C36.882 30.2762 37.5435 29.5165 38.439 29.1124C39.3345 28.7083 40.3515 28.7083 42.39 28.7083H49.5" stroke-width="3" stroke-linecap="round"/>
<path d="M38.25 4.69714C41.9062 5.05048 44.37 5.84768 46.2037 7.65189C49.5 10.8849 49.5 16.0899 49.5 26.5C49.5 36.9101 49.5 42.1151 46.2037 45.3504C42.912 48.5834 37.6065 48.5834 27 48.5834C16.3935 48.5834 11.0903 48.5834 7.794 45.3504C4.5 42.1129 4.5 36.9101 4.5 26.5C4.5 16.0899 4.5 10.8871 7.794 7.65189C9.63225 5.84768 12.0915 5.05048 15.75 4.69714" stroke-width="3" stroke-linecap="round"/>
</svg>
