<svg stroke="none" viewBox="0 0 53 53" xmlns="http://www.w3.org/2000/svg">
<path d="M35.3334 46.375C34.1188 46.375 33.0787 45.9422 32.213 45.0765C31.3473 44.2108 30.9152 43.1714 30.9167 41.9583V33.125C30.9167 31.9104 31.3495 30.8703 32.2152 30.0046C33.0809 29.139 34.1203 28.7069 35.3334 28.7083H44.1667C45.3813 28.7083 46.4214 29.1412 47.2871 30.0068C48.1527 30.8725 48.5848 31.9119 48.5834 33.125V41.9583C48.5834 43.1729 48.1505 44.213 47.2849 45.0787C46.4192 45.9444 45.3798 46.3765 44.1667 46.375H35.3334ZM35.3334 41.9583H44.1667V33.125H35.3334V41.9583ZM6.62503 39.75C5.99933 39.75 5.47449 39.538 5.05049 39.114C4.62649 38.69 4.41522 38.1659 4.41669 37.5417C4.41669 36.916 4.62869 36.3911 5.05269 35.9671C5.47669 35.5431 6.00081 35.3319 6.62503 35.3333H22.0834C22.7091 35.3333 23.2339 35.5453 23.6579 35.9693C24.0819 36.3933 24.2932 36.9174 24.2917 37.5417C24.2917 38.1674 24.0797 38.6922 23.6557 39.1162C23.2317 39.5402 22.7076 39.7515 22.0834 39.75H6.62503ZM35.3334 24.2917C34.1188 24.2917 33.0787 23.8588 32.213 22.9932C31.3473 22.1275 30.9152 21.0881 30.9167 19.875V11.0417C30.9167 9.82709 31.3495 8.78696 32.2152 7.9213C33.0809 7.05563 34.1203 6.62353 35.3334 6.625H44.1667C45.3813 6.625 46.4214 7.05784 47.2871 7.9235C48.1527 8.78917 48.5848 9.82856 48.5834 11.0417V19.875C48.5834 21.0896 48.1505 22.1297 47.2849 22.9954C46.4192 23.861 45.3798 24.2931 44.1667 24.2917H35.3334ZM35.3334 19.875H44.1667V11.0417H35.3334V19.875ZM6.62503 17.6667C5.99933 17.6667 5.47449 17.4547 5.05049 17.0307C4.62649 16.6067 4.41522 16.0826 4.41669 15.4583C4.41669 14.8326 4.62869 14.3078 5.05269 13.8838C5.47669 13.4598 6.00081 13.2485 6.62503 13.25H22.0834C22.7091 13.25 23.2339 13.462 23.6579 13.886C24.0819 14.31 24.2932 14.8341 24.2917 15.4583C24.2917 16.084 24.0797 16.6089 23.6557 17.0329C23.2317 17.4569 22.7076 17.6681 22.0834 17.6667H6.62503Z"/>
</svg>
