<svg viewBox="0 0 53 53" fill="none" xmlns="http://www.w3.org/2000/svg">
<path d="M41.9584 26.5L33.125 17.6667M41.9584 26.5L33.125 35.3333M41.9584 26.5H19.875M30.9167 46.375C28.3067 46.375 25.7222 45.8609 23.3109 44.8621C20.8995 43.8633 18.7085 42.3993 16.8629 40.5537C15.0174 38.7082 13.5534 36.5172 12.5546 34.1058C11.5558 31.6945 11.0417 29.11 11.0417 26.5C11.0417 23.89 11.5558 21.3055 12.5546 18.8942C13.5534 16.4828 15.0174 14.2918 16.8629 12.4463C18.7085 10.6007 20.8995 9.13671 23.3109 8.13789C25.7222 7.13908 28.3067 6.625 30.9167 6.625" stroke-width="3" stroke-linecap="round" stroke-linejoin="round"/>
</svg>
