<svg viewBox="0 0 53 53" fill="none" xmlns="http://www.w3.org/2000/svg">
<path d="M26.5 22.0833V4.41663M26.5 4.41663L33.125 11.0416M26.5 4.41663L19.875 11.0416" stroke-width="3" stroke-linecap="round" stroke-linejoin="round"/>
<path d="M4.41669 28.7083H11.395C13.3936 28.7083 14.3939 28.7083 15.2729 29.1124C16.1518 29.5165 16.801 30.2762 18.1017 31.7933L19.44 33.3524C20.7407 34.8695 21.3899 35.6292 22.2689 36.0333C23.1478 36.4374 24.1459 36.4374 26.1467 36.4374H26.8534C28.8519 36.4374 29.8523 36.4374 30.7312 36.0333C31.6101 35.6292 32.2594 34.8695 33.5601 33.3524L34.8983 31.7933C36.199 30.2762 36.8483 29.5165 37.7272 29.1124C38.6061 28.7083 39.6043 28.7083 41.605 28.7083H48.5834"  stroke-width="3" stroke-linecap="round"/>
<path d="M48.5834 26.5C48.5834 36.9101 48.5834 42.1151 45.3481 45.3504C42.1174 48.5834 36.9101 48.5834 26.5 48.5834C16.0899 48.5834 10.8849 48.5834 7.64969 45.3504C4.41669 42.1129 4.41669 36.9101 4.41669 26.5C4.41669 16.0899 4.41669 10.8871 7.64969 7.65189C9.4539 5.84768 11.8676 5.05048 15.4584 4.69714M37.5417 4.69714C41.1302 5.05048 43.5484 5.84768 45.3481 7.65189C47.4991 9.8006 48.219 12.8238 48.4619 17.6667"  stroke-width="3" stroke-linecap="round"/>
</svg>
