<svg stroke="none" viewBox="0 0 71 71" xmlns="http://www.w3.org/2000/svg">
<path d="M17.75 39.9375H31.0625V44.375H17.75V39.9375ZM17.75 48.8125H39.9375V53.25H17.75V48.8125Z" />
<path d="M57.6875 8.875H13.3125C12.136 8.87617 11.0079 9.34407 10.176 10.176C9.34407 11.0079 8.87617 12.136 8.875 13.3125V57.6875C8.87617 58.864 9.34407 59.9921 10.176 60.824C11.0079 61.6559 12.136 62.1238 13.3125 62.125H57.6875C58.864 62.1238 59.9921 61.6559 60.824 60.824C61.6559 59.9921 62.1238 58.864 62.125 57.6875V13.3125C62.1238 12.136 61.6559 11.0079 60.824 10.176C59.9921 9.34407 58.864 8.87617 57.6875 8.875ZM39.9375 13.3125V22.1875H31.0625V13.3125H39.9375ZM13.3125 57.6875V13.3125H26.625V26.625H44.375V13.3125H57.6875L57.6897 57.6875H13.3125Z"/>
</svg>
