<svg viewBox="0 0 59 59" xmlns="http://www.w3.org/2000/svg">
<path d="M16.4708 51.625C15.2826 51.625 14.2272 51.2358 13.3045 50.4573C12.3818 49.6788 11.8188 48.6955 11.6156 47.5073L7.86665 25.0135C7.74373 24.2761 7.91827 23.6107 8.39027 23.0174C8.86227 22.4241 9.48669 22.1266 10.2635 22.125H48.7364C49.5149 22.125 50.1401 22.4225 50.6121 23.0174C51.0841 23.6123 51.2579 24.2777 51.1333 25.0135L47.3844 47.5073C47.1795 48.6955 46.6165 49.6788 45.6955 50.4573C44.7744 51.2358 43.719 51.625 42.5291 51.625H16.4708ZM13.275 27.0417L16.4094 46.7083H42.5906L45.725 27.0417H13.275ZM24.5833 36.875H34.4166C35.1132 36.875 35.6974 36.639 36.1694 36.167C36.6414 35.695 36.8766 35.1116 36.875 34.4167C36.875 33.7201 36.639 33.1359 36.167 32.6639C35.695 32.1919 35.1115 31.9567 34.4166 31.9583H24.5833C23.8868 31.9583 23.3025 32.1943 22.8305 32.6663C22.3585 33.1383 22.1233 33.7218 22.125 34.4167C22.125 35.1132 22.361 35.6975 22.833 36.1695C23.305 36.6415 23.8884 36.8766 24.5833 36.875ZM14.75 19.6667C14.0535 19.6667 13.4692 19.4307 12.9972 18.9587C12.5252 18.4867 12.29 17.9032 12.2916 17.2083C12.2916 16.5118 12.5276 15.9276 12.9996 15.4556C13.4716 14.9836 14.0551 14.7484 14.75 14.75H44.25C44.9465 14.75 45.5308 14.986 46.0028 15.458C46.4748 15.93 46.71 16.5135 46.7083 17.2083C46.7083 17.9049 46.4723 18.4891 46.0003 18.9611C45.5283 19.4331 44.9449 19.6683 44.25 19.6667H14.75ZM19.6666 12.2917C18.9701 12.2917 18.3859 12.0557 17.9139 11.5837C17.4419 11.1117 17.2067 10.5282 17.2083 9.83334C17.2083 9.13681 17.4443 8.55255 17.9163 8.08055C18.3883 7.60855 18.9718 7.37337 19.6666 7.37501H39.3333C40.0298 7.37501 40.6141 7.61101 41.0861 8.08301C41.5581 8.55501 41.7933 9.13845 41.7916 9.83334C41.7916 10.5299 41.5556 11.1141 41.0836 11.5861C40.6116 12.0581 40.0282 12.2933 39.3333 12.2917H19.6666Z"/>
</svg>
